<?xml version="1.0" encoding="UTF-8" standalone="no"?>
<!-- Created with Inkscape (http://www.inkscape.org/) -->

<svg
   xmlns:dc="http://purl.org/dc/elements/1.1/"
   xmlns:cc="http://creativecommons.org/ns#"
   xmlns:rdf="http://www.w3.org/1999/02/22-rdf-syntax-ns#"
   xmlns:svg="http://www.w3.org/2000/svg"
   xmlns="http://www.w3.org/2000/svg"
   xmlns:sodipodi="http://sodipodi.sourceforge.net/DTD/sodipodi-0.dtd"
   xmlns:inkscape="http://www.inkscape.org/namespaces/inkscape"
   width="32"
   height="32"
   id="svg4717"
   version="1.1"
   inkscape:version="0.91 r13725"
   viewBox="0 0 32 32"
   sodipodi:docname="1_32x32.svg">
  <defs
     id="defs4719" />
  <sodipodi:namedview
     id="base"
     pagecolor="#ffffff"
     bordercolor="#666666"
     borderopacity="1.0"
     inkscape:pageopacity="0.0"
     inkscape:pageshadow="2"
     inkscape:zoom="11.197802"
     inkscape:cx="-11.810686"
     inkscape:cy="16.058099"
     inkscape:current-layer="layer1"
     showgrid="true"
     inkscape:grid-bbox="true"
     inkscape:document-units="px"
     inkscape:window-width="1366"
     inkscape:window-height="745"
     inkscape:window-x="-8"
     inkscape:window-y="-8"
     inkscape:window-maximized="1" />
  <metadata
     id="metadata4722">
    <rdf:RDF>
      <cc:Work
         rdf:about="">
        <dc:format>image/svg+xml</dc:format>
        <dc:type
           rdf:resource="http://purl.org/dc/dcmitype/StillImage" />
        <dc:title />
      </cc:Work>
    </rdf:RDF>
  </metadata>
  <g
     id="layer1"
     inkscape:label="Layer 1"
     inkscape:groupmode="layer">
    <g
       id="g3"
       transform="matrix(0.07818651,0,0,0.07818651,0.16539434,0.16539434)">
      <path
         d="M 283.897,92.846 C 247.315,43.501 210.209,3.579 209.836,3.182 207.944,1.153 205.296,0 202.523,0 c -2.774,0 -5.423,1.152 -7.314,3.182 -0.371,0.397 -37.478,40.319 -74.06,89.664 -49.971,67.403 -75.308,119.726 -75.308,155.513 0,86.396 70.287,156.688 156.682,156.688 86.396,0 156.683,-70.29 156.683,-156.688 0,-35.787 -25.338,-88.109 -75.309,-155.513 z m -65.726,261.496 c -8.213,1.941 -16.68,2.926 -25.162,2.926 -60.294,0 -109.347,-49.055 -109.347,-109.35 0,-8.312 2.559,-23.373 14.75,-47.914 1.225,-2.467 4.046,-3.691 6.687,-2.908 2.639,0.785 4.33,3.357 4.007,6.091 -0.28,2.361 -0.421,4.584 -0.421,6.607 0,64.629 45.966,120.77 109.298,133.484 2.607,0.525 4.5,2.795 4.545,5.455 0.047,2.663 -1.767,4.996 -4.357,5.609 z"
         id="path5"
         inkscape:connector-curvature="0" />
    </g>
  </g>
</svg>
