<?xml version="1.0" encoding="UTF-8" standalone="no"?>
<!-- Created with Inkscape (http://www.inkscape.org/) -->

<svg
   xmlns:dc="http://purl.org/dc/elements/1.1/"
   xmlns:cc="http://creativecommons.org/ns#"
   xmlns:rdf="http://www.w3.org/1999/02/22-rdf-syntax-ns#"
   xmlns:svg="http://www.w3.org/2000/svg"
   xmlns="http://www.w3.org/2000/svg"
   xmlns:sodipodi="http://sodipodi.sourceforge.net/DTD/sodipodi-0.dtd"
   xmlns:inkscape="http://www.inkscape.org/namespaces/inkscape"
   width="32"
   height="32"
   id="svg9880"
   version="1.1"
   inkscape:version="0.91 r13725"
   viewBox="0 0 32 32"
   sodipodi:docname="2_32x32.svg">
  <defs
     id="defs9882" />
  <sodipodi:namedview
     id="base"
     pagecolor="#ffffff"
     bordercolor="#666666"
     borderopacity="1.0"
     inkscape:pageopacity="0.0"
     inkscape:pageshadow="2"
     inkscape:zoom="7.9180417"
     inkscape:cx="23.848426"
     inkscape:cy="11.102338"
     inkscape:current-layer="layer1"
     showgrid="true"
     inkscape:grid-bbox="true"
     inkscape:document-units="px"
     inkscape:window-width="1366"
     inkscape:window-height="745"
     inkscape:window-x="-8"
     inkscape:window-y="-8"
     inkscape:window-maximized="1" />
  <metadata
     id="metadata9885">
    <rdf:RDF>
      <cc:Work
         rdf:about="">
        <dc:format>image/svg+xml</dc:format>
        <dc:type
           rdf:resource="http://purl.org/dc/dcmitype/StillImage" />
        <dc:title></dc:title>
      </cc:Work>
    </rdf:RDF>
  </metadata>
  <g
     id="layer1"
     inkscape:label="Layer 1"
     inkscape:groupmode="layer">
    <g
       transform="matrix(0.06663633,0,0,0.06663633,0.56603893,0.56595979)"
       id="g9300">
      <path
         inkscape:connector-curvature="0"
         d="m 418.193,245.165 -84.252,22.564 -32.476,-18.734 0,-35.156 32.105,-18.436 84.621,22.674 c 1.701,0.454 3.41,0.678 5.104,0.678 8.692,0 16.646,-5.805 18.995,-14.598 2.815,-10.508 -3.415,-21.307 -13.922,-24.119 l -46.391,-12.43 42.766,-24.553 c 9.426,-5.414 12.688,-17.449 7.273,-26.879 -5.433,-9.43 -17.444,-12.697 -26.874,-7.27 l -42.854,24.611 12.427,-46.407 c 2.812,-10.505 -3.409,-21.306 -13.921,-24.118 -10.442,-2.739 -21.285,3.422 -24.101,13.92 l -22.58,84.256 -32.306,18.553 -30.625,-17.707 0,-37.154 61.931,-61.93 c 7.688,-7.692 7.688,-20.151 0,-27.844 -7.69,-7.691 -20.146,-7.691 -27.842,0 l -34.089,34.088 0,-49.486 C 251.183,8.816 242.365,0 231.492,0 220.621,0 211.804,8.815 211.804,19.688 l 0,49.242 -33.841,-33.844 c -7.691,-7.691 -20.15,-7.691 -27.843,0 -7.691,7.692 -7.691,20.151 0,27.844 l 61.684,61.683 0,37.544 -30.393,17.534 -32.306,-18.536 -22.564,-84.242 C 123.73,66.415 112.938,60.237 102.441,62.993 91.935,65.805 85.7,76.606 88.515,87.111 l 12.426,46.399 -42.852,-24.604 c -9.447,-5.428 -21.472,-2.168 -26.878,7.275 -5.411,9.432 -2.148,21.459 7.281,26.873 l 42.762,24.553 -46.392,12.43 c -10.507,2.812 -16.74,13.611 -13.926,24.119 2.355,8.793 10.307,14.598 19,14.598 1.693,0 3.403,-0.224 5.109,-0.678 l 84.632,-22.682 32.069,18.412 0.033,35.188 -32.486,18.768 -84.248,-22.598 c -10.433,-2.738 -21.291,3.43 -24.109,13.924 -2.814,10.504 3.419,21.306 13.926,24.103 l 46.222,12.397 -42.641,24.616 c -9.413,5.441 -12.643,17.472 -7.199,26.886 3.647,6.336 10.263,9.844 17.06,9.844 3.337,0 6.724,-0.83 9.827,-2.646 l 42.857,-24.732 -12.473,46.577 c -2.815,10.522 3.42,21.29 13.926,24.119 1.701,0.461 3.41,0.679 5.104,0.679 8.689,0 16.641,-5.814 18.996,-14.613 l 22.676,-84.605 32.252,-18.609 30.335,17.504 0,38.025 -61.684,61.685 c -7.691,7.69 -7.691,20.147 0,27.842 3.846,3.846 8.875,5.752 13.921,5.752 5.029,0 10.076,-1.906 13.922,-5.752 l 33.841,-33.842 0,49.225 c 0,10.892 8.817,19.689 19.688,19.689 10.873,0 19.691,-8.799 19.691,-19.689 l 0,-49.471 34.089,34.088 c 3.845,3.846 8.874,5.752 13.921,5.752 5.047,0 10.076,-1.906 13.921,-5.752 7.688,-7.693 7.688,-20.15 0,-27.842 l -61.931,-61.931 0,-37.627 30.595,-17.658 32.243,18.609 22.676,84.605 c 2.352,8.799 10.304,14.613 18.992,14.613 1.688,0 3.402,-0.218 5.107,-0.679 10.512,-2.829 16.732,-13.597 13.921,-24.119 l -12.487,-46.577 42.873,24.732 c 3.104,1.814 6.49,2.646 9.828,2.646 6.797,0 13.411,-3.508 17.059,-9.844 5.443,-9.414 2.215,-21.443 -7.199,-26.886 L 382.15,295.59 428.371,283.192 c 10.507,-2.797 16.737,-13.6 13.922,-24.102 -2.798,-10.496 -13.611,-16.677 -24.1,-13.925 z m -156.106,3.83 -30.472,17.599 -30.45,-17.6 -0.034,-35.219 30.484,-17.587 30.472,17.613 0,35.194 z"
         id="path9302" />
    </g>
  </g>
</svg>
