<?xml version="1.0" encoding="UTF-8" standalone="no"?>
<!-- Created with Inkscape (http://www.inkscape.org/) -->

<svg
   xmlns:dc="http://purl.org/dc/elements/1.1/"
   xmlns:cc="http://creativecommons.org/ns#"
   xmlns:rdf="http://www.w3.org/1999/02/22-rdf-syntax-ns#"
   xmlns:svg="http://www.w3.org/2000/svg"
   xmlns="http://www.w3.org/2000/svg"
   xmlns:sodipodi="http://sodipodi.sourceforge.net/DTD/sodipodi-0.dtd"
   xmlns:inkscape="http://www.inkscape.org/namespaces/inkscape"
   width="32"
   height="32"
   id="svg5326"
   version="1.1"
   inkscape:version="0.91 r13725"
   viewBox="0 0 32 32"
   sodipodi:docname="4_32x32.svg">
  <defs
     id="defs5328" />
  <sodipodi:namedview
     id="base"
     pagecolor="#ffffff"
     bordercolor="#666666"
     borderopacity="1.0"
     inkscape:pageopacity="0.0"
     inkscape:pageshadow="2"
     inkscape:zoom="7.9180417"
     inkscape:cx="-8.4317634"
     inkscape:cy="19.652859"
     inkscape:current-layer="layer1"
     showgrid="true"
     inkscape:grid-bbox="true"
     inkscape:document-units="px"
     inkscape:window-width="1366"
     inkscape:window-height="745"
     inkscape:window-x="-8"
     inkscape:window-y="-8"
     inkscape:window-maximized="1" />
  <metadata
     id="metadata5331">
    <rdf:RDF>
      <cc:Work
         rdf:about="">
        <dc:format>image/svg+xml</dc:format>
        <dc:type
           rdf:resource="http://purl.org/dc/dcmitype/StillImage" />
        <dc:title></dc:title>
      </cc:Work>
    </rdf:RDF>
  </metadata>
  <g
     id="layer1"
     inkscape:label="Layer 1"
     inkscape:groupmode="layer">
    <g
       transform="matrix(0.05609443,0,0,0.05609443,1.5164182,1.5164462)"
       id="g5875">
      <g
         id="g5877">
        <path
           inkscape:connector-curvature="0"
           d="m 382.5,306.101 -267.8,0 0,19.1 267.8,0 c 11.5,0 19.1,7.6 19.1,19.1 0,11.5 -7.6,19.099 -19.1,19.099 -11.5,0 -19.1,-7.601 -19.1,-19.101 l -19.1,0 c 0,21 17.199,38.2 38.199,38.2 21,0 38.199,-17.2 38.199,-38.2 0,-21 -17.198,-38.198 -38.198,-38.198 z"
           id="path5879" />
        <path
           inkscape:connector-curvature="0"
           d="m 344.199,191.3 c 0,-32.5 -24.898,-57.4 -57.398,-57.4 -32.5,0 -57.401,24.9 -57.401,57.4 l 19.2,0 c 0,-21 17.201,-38.2 38.201,-38.2 21,0 38.199,17.2 38.199,38.2 0,21 -17.199,38.2 -38.199,38.2 l -229.401,0 0,19.2 229.5,0 c 32.5,0 57.299,-24.9 57.299,-57.4 z"
           id="path5881" />
        <path
           inkscape:connector-curvature="0"
           d="m 439.801,133.9 c -42.102,0 -76.5,34.4 -76.5,76.5 l 19.1,0 c 0,-32.5 24.9,-57.4 57.4,-57.4 32.5,0 57.398,24.9 57.398,57.4 0,32.5 -24.898,57.4 -57.398,57.4 L 0,267.8 l 0,19.1 439.9,0 c 42.1,0 76.5,-34.4 76.5,-76.5 0,-42.1 -34.5,-76.5 -76.599,-76.5 z"
           id="path5883" />
      </g>
    </g>
  </g>
</svg>
