<?xml version="1.0" encoding="UTF-8" standalone="no"?>
<!-- Created with Inkscape (http://www.inkscape.org/) -->

<svg
   xmlns:dc="http://purl.org/dc/elements/1.1/"
   xmlns:cc="http://creativecommons.org/ns#"
   xmlns:rdf="http://www.w3.org/1999/02/22-rdf-syntax-ns#"
   xmlns:svg="http://www.w3.org/2000/svg"
   xmlns="http://www.w3.org/2000/svg"
   xmlns:sodipodi="http://sodipodi.sourceforge.net/DTD/sodipodi-0.dtd"
   xmlns:inkscape="http://www.inkscape.org/namespaces/inkscape"
   width="32"
   height="32"
   id="svg7581"
   version="1.1"
   inkscape:version="0.91 r13725"
   viewBox="0 0 32 32"
   sodipodi:docname="6_32x32.svg">
  <defs
     id="defs7583" />
  <sodipodi:namedview
     id="base"
     pagecolor="#ffffff"
     bordercolor="#666666"
     borderopacity="1.0"
     inkscape:pageopacity="0.0"
     inkscape:pageshadow="2"
     inkscape:zoom="11.197802"
     inkscape:cx="-0.29784131"
     inkscape:cy="16"
     inkscape:current-layer="layer1"
     showgrid="true"
     inkscape:grid-bbox="true"
     inkscape:document-units="px"
     inkscape:window-width="1366"
     inkscape:window-height="745"
     inkscape:window-x="-8"
     inkscape:window-y="-8"
     inkscape:window-maximized="1" />
  <metadata
     id="metadata7586">
    <rdf:RDF>
      <cc:Work
         rdf:about="">
        <dc:format>image/svg+xml</dc:format>
        <dc:type
           rdf:resource="http://purl.org/dc/dcmitype/StillImage" />
        <dc:title></dc:title>
      </cc:Work>
    </rdf:RDF>
  </metadata>
  <g
     id="layer1"
     inkscape:label="Layer 1"
     inkscape:groupmode="layer">
    <g
       transform="matrix(0.79625138,0,0,0.79625138,0.4731478,0.47309809)"
       id="g7001">
      <path
         inkscape:connector-curvature="0"
         d="m 28.253,21.525 c -0.33,0.619 -0.938,1 -1.6,1 l -14.31,0 c -0.659,0 -1.269,-0.381 -1.599,-1 -0.33,-0.617 -0.33,-1.381 0,-2 l 3.578,-6.712 c 0.329,-0.619 0.938,-1 1.599,-1 l 7.153,0 c 0.659,0 1.269,0.381 1.599,1 l 3.578,6.712 c 0.332,0.621 0.332,1.383 0.002,2 z m -10.5,10.25 -3.577,-6.711 c -0.33,-0.619 -0.939,-1 -1.599,-1 l -7.154,0 c -0.659,0 -1.269,0.381 -1.598,1 l -3.578,6.711 c -0.33,0.619 -0.33,1.383 0,2 0.33,0.619 0.938,1 1.599,1 l 14.308,0 c 0.659,0 1.27,-0.381 1.599,-1 0.33,-0.617 0.33,-1.379 0,-2 z m 20.999,0 -3.578,-6.711 c -0.33,-0.619 -0.938,-1 -1.598,-1 l -7.154,0 c -0.659,0 -1.27,0.381 -1.599,1 l -3.577,6.711 c -0.33,0.619 -0.33,1.383 0,2 0.329,0.619 0.938,1 1.598,1 l 14.309,0 c 0.66,0 1.271,-0.381 1.6,-1 0.33,-0.617 0.33,-1.379 -10e-4,-2 z m -6.635,-19.307 -0.639,2.994 -2.996,0.638 2.996,0.637 0.639,2.994 0.638,-2.994 2.996,-0.637 -2.996,-0.638 -0.638,-2.994 z M 8.888,8.975 8.25,11.968 5.254,12.606 8.25,13.243 8.888,16.237 9.526,13.243 12.522,12.606 9.526,11.968 8.888,8.975 Z M 24.139,4.225 23.5,7.218 20.504,7.856 23.5,8.494 24.139,11.488 24.777,8.494 27.773,7.857 24.777,7.219 24.139,4.225 Z"
         id="path7003" />
    </g>
  </g>
</svg>
